<mxfile host="app.diagrams.net" agent="Mozilla/5.0 (Macintosh; Intel Mac OS X 10_15_7) AppleWebKit/537.36 (KHTML, like Gecko) Chrome/130.0.0.0 Safari/537.36" version="24.8.3">
  <diagram name="Page-1" id="GpvwTEWSf9apG_uwmFOl">
    <mxGraphModel dx="1224" dy="774" grid="1" gridSize="10" guides="1" tooltips="1" connect="1" arrows="1" fold="1" page="1" pageScale="1" pageWidth="850" pageHeight="1100" math="0" shadow="0">
      <root>
        <mxCell id="0" />
        <mxCell id="1" parent="0" />
        <mxCell id="_4eZX6M3D6OcU4EHc6F5-1" value="Piece" style="swimlane;fontStyle=1;align=center;verticalAlign=middle;childLayout=stackLayout;horizontal=1;startSize=29;horizontalStack=0;resizeParent=1;resizeParentMax=0;resizeLast=0;collapsible=0;marginBottom=0;html=1;whiteSpace=wrap;" vertex="1" parent="1">
          <mxGeometry x="630" y="270" width="140" height="190" as="geometry" />
        </mxCell>
        <mxCell id="_4eZX6M3D6OcU4EHc6F5-2" value="name: String&lt;div&gt;id: int&lt;/div&gt;&lt;div&gt;position: Cell&lt;/div&gt;" style="text;html=1;strokeColor=none;fillColor=none;align=center;verticalAlign=middle;spacingLeft=4;spacingRight=4;overflow=hidden;rotatable=0;points=[[0,0.5],[1,0.5]];portConstraint=eastwest;whiteSpace=wrap;" vertex="1" parent="_4eZX6M3D6OcU4EHc6F5-1">
          <mxGeometry y="29" width="140" height="71" as="geometry" />
        </mxCell>
        <mxCell id="_4eZX6M3D6OcU4EHc6F5-3" value="isValidMove(position, destination)&lt;div&gt;getter&lt;/div&gt;&lt;div&gt;setter&lt;/div&gt;&lt;div&gt;&lt;br&gt;&lt;/div&gt;" style="text;html=1;strokeColor=none;fillColor=none;align=left;verticalAlign=middle;spacingLeft=4;spacingRight=4;overflow=hidden;rotatable=0;points=[[0,0.5],[1,0.5]];portConstraint=eastwest;whiteSpace=wrap;" vertex="1" parent="_4eZX6M3D6OcU4EHc6F5-1">
          <mxGeometry y="100" width="140" height="90" as="geometry" />
        </mxCell>
        <mxCell id="_4eZX6M3D6OcU4EHc6F5-8" value="Rook" style="swimlane;fontStyle=1;align=center;verticalAlign=middle;childLayout=stackLayout;horizontal=1;startSize=29;horizontalStack=0;resizeParent=1;resizeParentMax=0;resizeLast=0;collapsible=0;marginBottom=0;html=1;whiteSpace=wrap;" vertex="1" parent="1">
          <mxGeometry x="842" y="180" width="140" height="125" as="geometry" />
        </mxCell>
        <mxCell id="_4eZX6M3D6OcU4EHc6F5-9" value="name: String&lt;div&gt;id: int&lt;/div&gt;&lt;div&gt;position: Cell&lt;/div&gt;" style="text;html=1;strokeColor=none;fillColor=none;align=center;verticalAlign=middle;spacingLeft=4;spacingRight=4;overflow=hidden;rotatable=0;points=[[0,0.5],[1,0.5]];portConstraint=eastwest;whiteSpace=wrap;" vertex="1" parent="_4eZX6M3D6OcU4EHc6F5-8">
          <mxGeometry y="29" width="140" height="71" as="geometry" />
        </mxCell>
        <mxCell id="_4eZX6M3D6OcU4EHc6F5-10" value="isValidMove(position, destination)" style="text;html=1;strokeColor=none;fillColor=none;align=left;verticalAlign=middle;spacingLeft=4;spacingRight=4;overflow=hidden;rotatable=0;points=[[0,0.5],[1,0.5]];portConstraint=eastwest;whiteSpace=wrap;" vertex="1" parent="_4eZX6M3D6OcU4EHc6F5-8">
          <mxGeometry y="100" width="140" height="25" as="geometry" />
        </mxCell>
        <mxCell id="_4eZX6M3D6OcU4EHc6F5-12" style="edgeStyle=orthogonalEdgeStyle;rounded=0;orthogonalLoop=1;jettySize=auto;html=1;entryX=1;entryY=0.5;entryDx=0;entryDy=0;" edge="1" parent="1" source="_4eZX6M3D6OcU4EHc6F5-9" target="_4eZX6M3D6OcU4EHc6F5-2">
          <mxGeometry relative="1" as="geometry" />
        </mxCell>
        <mxCell id="_4eZX6M3D6OcU4EHc6F5-17" style="edgeStyle=orthogonalEdgeStyle;rounded=0;orthogonalLoop=1;jettySize=auto;html=1;entryX=1;entryY=0.5;entryDx=0;entryDy=0;" edge="1" parent="1" source="_4eZX6M3D6OcU4EHc6F5-14" target="_4eZX6M3D6OcU4EHc6F5-2">
          <mxGeometry relative="1" as="geometry" />
        </mxCell>
        <mxCell id="_4eZX6M3D6OcU4EHc6F5-14" value="bishop" style="swimlane;fontStyle=1;align=center;verticalAlign=middle;childLayout=stackLayout;horizontal=1;startSize=29;horizontalStack=0;resizeParent=1;resizeParentMax=0;resizeLast=0;collapsible=0;marginBottom=0;html=1;whiteSpace=wrap;" vertex="1" parent="1">
          <mxGeometry x="842" y="330" width="140" height="125" as="geometry" />
        </mxCell>
        <mxCell id="_4eZX6M3D6OcU4EHc6F5-15" value="name: String&lt;div&gt;id: int&lt;/div&gt;&lt;div&gt;position: Cell&lt;/div&gt;" style="text;html=1;strokeColor=none;fillColor=none;align=center;verticalAlign=middle;spacingLeft=4;spacingRight=4;overflow=hidden;rotatable=0;points=[[0,0.5],[1,0.5]];portConstraint=eastwest;whiteSpace=wrap;" vertex="1" parent="_4eZX6M3D6OcU4EHc6F5-14">
          <mxGeometry y="29" width="140" height="71" as="geometry" />
        </mxCell>
        <mxCell id="_4eZX6M3D6OcU4EHc6F5-16" value="isValidMove(position, destination)" style="text;html=1;strokeColor=none;fillColor=none;align=left;verticalAlign=middle;spacingLeft=4;spacingRight=4;overflow=hidden;rotatable=0;points=[[0,0.5],[1,0.5]];portConstraint=eastwest;whiteSpace=wrap;" vertex="1" parent="_4eZX6M3D6OcU4EHc6F5-14">
          <mxGeometry y="100" width="140" height="25" as="geometry" />
        </mxCell>
        <mxCell id="_4eZX6M3D6OcU4EHc6F5-18" value="knight" style="swimlane;fontStyle=1;align=center;verticalAlign=middle;childLayout=stackLayout;horizontal=1;startSize=29;horizontalStack=0;resizeParent=1;resizeParentMax=0;resizeLast=0;collapsible=0;marginBottom=0;html=1;whiteSpace=wrap;" vertex="1" parent="1">
          <mxGeometry x="842" y="488" width="140" height="125" as="geometry" />
        </mxCell>
        <mxCell id="_4eZX6M3D6OcU4EHc6F5-19" value="name: String&lt;div&gt;id: int&lt;/div&gt;&lt;div&gt;position: Cell&lt;/div&gt;" style="text;html=1;strokeColor=none;fillColor=none;align=center;verticalAlign=middle;spacingLeft=4;spacingRight=4;overflow=hidden;rotatable=0;points=[[0,0.5],[1,0.5]];portConstraint=eastwest;whiteSpace=wrap;" vertex="1" parent="_4eZX6M3D6OcU4EHc6F5-18">
          <mxGeometry y="29" width="140" height="71" as="geometry" />
        </mxCell>
        <mxCell id="_4eZX6M3D6OcU4EHc6F5-20" value="isValidMove(position, destination)" style="text;html=1;strokeColor=none;fillColor=none;align=left;verticalAlign=middle;spacingLeft=4;spacingRight=4;overflow=hidden;rotatable=0;points=[[0,0.5],[1,0.5]];portConstraint=eastwest;whiteSpace=wrap;" vertex="1" parent="_4eZX6M3D6OcU4EHc6F5-18">
          <mxGeometry y="100" width="140" height="25" as="geometry" />
        </mxCell>
        <mxCell id="_4eZX6M3D6OcU4EHc6F5-22" value="" style="endArrow=none;dashed=1;html=1;dashPattern=1 3;strokeWidth=2;rounded=0;" edge="1" parent="1">
          <mxGeometry width="50" height="50" relative="1" as="geometry">
            <mxPoint x="911.5" y="710" as="sourcePoint" />
            <mxPoint x="911.5" y="640" as="targetPoint" />
          </mxGeometry>
        </mxCell>
        <mxCell id="_4eZX6M3D6OcU4EHc6F5-23" value="Cell" style="swimlane;fontStyle=1;align=center;verticalAlign=middle;childLayout=stackLayout;horizontal=1;startSize=29;horizontalStack=0;resizeParent=1;resizeParentMax=0;resizeLast=0;collapsible=0;marginBottom=0;html=1;whiteSpace=wrap;" vertex="1" parent="1">
          <mxGeometry x="470" y="650" width="140" height="100" as="geometry" />
        </mxCell>
        <mxCell id="_4eZX6M3D6OcU4EHc6F5-24" value="id: int&lt;div&gt;piece: Optional[Piece]&lt;/div&gt;" style="text;html=1;strokeColor=none;fillColor=none;align=center;verticalAlign=middle;spacingLeft=4;spacingRight=4;overflow=hidden;rotatable=0;points=[[0,0.5],[1,0.5]];portConstraint=eastwest;whiteSpace=wrap;" vertex="1" parent="_4eZX6M3D6OcU4EHc6F5-23">
          <mxGeometry y="29" width="140" height="71" as="geometry" />
        </mxCell>
        <mxCell id="_4eZX6M3D6OcU4EHc6F5-30" value="board" style="swimlane;fontStyle=1;align=center;verticalAlign=middle;childLayout=stackLayout;horizontal=1;startSize=29;horizontalStack=0;resizeParent=1;resizeParentMax=0;resizeLast=0;collapsible=0;marginBottom=0;html=1;whiteSpace=wrap;" vertex="1" parent="1">
          <mxGeometry x="450" y="450" width="140" height="100" as="geometry" />
        </mxCell>
        <mxCell id="_4eZX6M3D6OcU4EHc6F5-31" value="board list&amp;lt;list&amp;lt;cells&amp;gt;&amp;gt;" style="text;html=1;strokeColor=none;fillColor=none;align=center;verticalAlign=middle;spacingLeft=4;spacingRight=4;overflow=hidden;rotatable=0;points=[[0,0.5],[1,0.5]];portConstraint=eastwest;whiteSpace=wrap;" vertex="1" parent="_4eZX6M3D6OcU4EHc6F5-30">
          <mxGeometry y="29" width="140" height="71" as="geometry" />
        </mxCell>
        <mxCell id="_4eZX6M3D6OcU4EHc6F5-33" value="boardGenerator" style="swimlane;fontStyle=1;align=center;verticalAlign=middle;childLayout=stackLayout;horizontal=1;startSize=29;horizontalStack=0;resizeParent=1;resizeParentMax=0;resizeLast=0;collapsible=0;marginBottom=0;html=1;whiteSpace=wrap;" vertex="1" parent="1">
          <mxGeometry x="200" y="340" width="140" height="150" as="geometry" />
        </mxCell>
        <mxCell id="_4eZX6M3D6OcU4EHc6F5-34" value="board list&amp;lt;list&amp;lt;cells&amp;gt;&amp;gt;&lt;div&gt;pieces:list&amp;lt;list&amp;lt;piece&amp;gt;&amp;gt;&lt;/div&gt;" style="text;html=1;strokeColor=none;fillColor=none;align=center;verticalAlign=middle;spacingLeft=4;spacingRight=4;overflow=hidden;rotatable=0;points=[[0,0.5],[1,0.5]];portConstraint=eastwest;whiteSpace=wrap;" vertex="1" parent="_4eZX6M3D6OcU4EHc6F5-33">
          <mxGeometry y="29" width="140" height="71" as="geometry" />
        </mxCell>
        <mxCell id="_4eZX6M3D6OcU4EHc6F5-35" value="generateBoard(Board,&amp;nbsp;" style="text;html=1;strokeColor=none;fillColor=none;align=left;verticalAlign=middle;spacingLeft=4;spacingRight=4;overflow=hidden;rotatable=0;points=[[0,0.5],[1,0.5]];portConstraint=eastwest;whiteSpace=wrap;" vertex="1" parent="_4eZX6M3D6OcU4EHc6F5-33">
          <mxGeometry y="100" width="140" height="50" as="geometry" />
        </mxCell>
        <mxCell id="_4eZX6M3D6OcU4EHc6F5-36" value="Game" style="swimlane;fontStyle=1;align=center;verticalAlign=middle;childLayout=stackLayout;horizontal=1;startSize=29;horizontalStack=0;resizeParent=1;resizeParentMax=0;resizeLast=0;collapsible=0;marginBottom=0;html=1;whiteSpace=wrap;" vertex="1" parent="1">
          <mxGeometry x="10" y="360" width="140" height="125" as="geometry" />
        </mxCell>
        <mxCell id="_4eZX6M3D6OcU4EHc6F5-37" value="Board&lt;div&gt;players&lt;/div&gt;&lt;div&gt;mover&lt;/div&gt;" style="text;html=1;strokeColor=none;fillColor=none;align=center;verticalAlign=middle;spacingLeft=4;spacingRight=4;overflow=hidden;rotatable=0;points=[[0,0.5],[1,0.5]];portConstraint=eastwest;whiteSpace=wrap;" vertex="1" parent="_4eZX6M3D6OcU4EHc6F5-36">
          <mxGeometry y="29" width="140" height="71" as="geometry" />
        </mxCell>
        <mxCell id="_4eZX6M3D6OcU4EHc6F5-38" value="startGame" style="text;html=1;strokeColor=none;fillColor=none;align=left;verticalAlign=middle;spacingLeft=4;spacingRight=4;overflow=hidden;rotatable=0;points=[[0,0.5],[1,0.5]];portConstraint=eastwest;whiteSpace=wrap;" vertex="1" parent="_4eZX6M3D6OcU4EHc6F5-36">
          <mxGeometry y="100" width="140" height="25" as="geometry" />
        </mxCell>
        <mxCell id="_4eZX6M3D6OcU4EHc6F5-42" value="" style="edgeStyle=orthogonalEdgeStyle;rounded=0;orthogonalLoop=1;jettySize=auto;html=1;" edge="1" parent="1" source="_4eZX6M3D6OcU4EHc6F5-39" target="_4eZX6M3D6OcU4EHc6F5-38">
          <mxGeometry relative="1" as="geometry" />
        </mxCell>
        <mxCell id="_4eZX6M3D6OcU4EHc6F5-39" value="Mover" style="swimlane;fontStyle=1;align=center;verticalAlign=middle;childLayout=stackLayout;horizontal=1;startSize=29;horizontalStack=0;resizeParent=1;resizeParentMax=0;resizeLast=0;collapsible=0;marginBottom=0;html=1;whiteSpace=wrap;" vertex="1" parent="1">
          <mxGeometry x="10" y="530" width="140" height="70" as="geometry" />
        </mxCell>
        <mxCell id="_4eZX6M3D6OcU4EHc6F5-41" value="move(piece, position, destination)" style="text;html=1;strokeColor=none;fillColor=none;align=left;verticalAlign=middle;spacingLeft=4;spacingRight=4;overflow=hidden;rotatable=0;points=[[0,0.5],[1,0.5]];portConstraint=eastwest;whiteSpace=wrap;" vertex="1" parent="_4eZX6M3D6OcU4EHc6F5-39">
          <mxGeometry y="29" width="140" height="41" as="geometry" />
        </mxCell>
        <mxCell id="_4eZX6M3D6OcU4EHc6F5-44" value="player" style="swimlane;fontStyle=1;align=center;verticalAlign=middle;childLayout=stackLayout;horizontal=1;startSize=29;horizontalStack=0;resizeParent=1;resizeParentMax=0;resizeLast=0;collapsible=0;marginBottom=0;html=1;whiteSpace=wrap;" vertex="1" parent="1">
          <mxGeometry x="10" y="170" width="170" height="110" as="geometry" />
        </mxCell>
        <mxCell id="_4eZX6M3D6OcU4EHc6F5-45" value="pieces: list&amp;lt;list&amp;lt;piece&amp;gt;&amp;gt;" style="text;html=1;strokeColor=none;fillColor=none;align=center;verticalAlign=middle;spacingLeft=4;spacingRight=4;overflow=hidden;rotatable=0;points=[[0,0.5],[1,0.5]];portConstraint=eastwest;whiteSpace=wrap;" vertex="1" parent="_4eZX6M3D6OcU4EHc6F5-44">
          <mxGeometry y="29" width="170" height="81" as="geometry" />
        </mxCell>
        <mxCell id="_4eZX6M3D6OcU4EHc6F5-47" style="edgeStyle=orthogonalEdgeStyle;rounded=0;orthogonalLoop=1;jettySize=auto;html=1;exitX=0.5;exitY=0;exitDx=0;exitDy=0;" edge="1" parent="1" source="_4eZX6M3D6OcU4EHc6F5-1" target="_4eZX6M3D6OcU4EHc6F5-45">
          <mxGeometry relative="1" as="geometry">
            <mxPoint x="680" y="260" as="sourcePoint" />
            <Array as="points">
              <mxPoint x="682" y="200" />
              <mxPoint x="396" y="200" />
              <mxPoint x="396" y="235" />
            </Array>
          </mxGeometry>
        </mxCell>
        <mxCell id="_4eZX6M3D6OcU4EHc6F5-48" style="edgeStyle=orthogonalEdgeStyle;rounded=0;orthogonalLoop=1;jettySize=auto;html=1;entryX=0.593;entryY=-0.008;entryDx=0;entryDy=0;entryPerimeter=0;" edge="1" parent="1" source="_4eZX6M3D6OcU4EHc6F5-44" target="_4eZX6M3D6OcU4EHc6F5-36">
          <mxGeometry relative="1" as="geometry" />
        </mxCell>
        <mxCell id="_4eZX6M3D6OcU4EHc6F5-49" style="edgeStyle=orthogonalEdgeStyle;rounded=0;orthogonalLoop=1;jettySize=auto;html=1;entryX=1;entryY=0.5;entryDx=0;entryDy=0;" edge="1" parent="1" source="_4eZX6M3D6OcU4EHc6F5-31" target="_4eZX6M3D6OcU4EHc6F5-33">
          <mxGeometry relative="1" as="geometry" />
        </mxCell>
        <mxCell id="_4eZX6M3D6OcU4EHc6F5-50" style="edgeStyle=orthogonalEdgeStyle;rounded=0;orthogonalLoop=1;jettySize=auto;html=1;entryX=1;entryY=0.282;entryDx=0;entryDy=0;entryPerimeter=0;" edge="1" parent="1" source="_4eZX6M3D6OcU4EHc6F5-34" target="_4eZX6M3D6OcU4EHc6F5-37">
          <mxGeometry relative="1" as="geometry" />
        </mxCell>
        <mxCell id="_4eZX6M3D6OcU4EHc6F5-51" style="edgeStyle=orthogonalEdgeStyle;rounded=0;orthogonalLoop=1;jettySize=auto;html=1;entryX=0.479;entryY=1.022;entryDx=0;entryDy=0;entryPerimeter=0;" edge="1" parent="1" source="_4eZX6M3D6OcU4EHc6F5-18" target="_4eZX6M3D6OcU4EHc6F5-3">
          <mxGeometry relative="1" as="geometry">
            <Array as="points">
              <mxPoint x="697" y="560" />
            </Array>
          </mxGeometry>
        </mxCell>
        <mxCell id="_4eZX6M3D6OcU4EHc6F5-53" style="edgeStyle=orthogonalEdgeStyle;rounded=0;orthogonalLoop=1;jettySize=auto;html=1;entryX=0.629;entryY=1.042;entryDx=0;entryDy=0;entryPerimeter=0;" edge="1" parent="1" source="_4eZX6M3D6OcU4EHc6F5-23" target="_4eZX6M3D6OcU4EHc6F5-31">
          <mxGeometry relative="1" as="geometry">
            <Array as="points">
              <mxPoint x="540" y="600" />
              <mxPoint x="538" y="600" />
            </Array>
          </mxGeometry>
        </mxCell>
        <mxCell id="_4eZX6M3D6OcU4EHc6F5-54" style="edgeStyle=orthogonalEdgeStyle;rounded=0;orthogonalLoop=1;jettySize=auto;html=1;entryX=1.007;entryY=0.324;entryDx=0;entryDy=0;entryPerimeter=0;" edge="1" parent="1" source="_4eZX6M3D6OcU4EHc6F5-3" target="_4eZX6M3D6OcU4EHc6F5-34">
          <mxGeometry relative="1" as="geometry" />
        </mxCell>
      </root>
    </mxGraphModel>
  </diagram>
</mxfile>
